<svg width="9" height="12" viewBox="0 0 9 12" fill="none" xmlns="http://www.w3.org/2000/svg">
<path d="M6.79688 5.32031C6.79688 7.01715 4.91448 8.78434 4.28237 9.33013C4.22348 9.37441 4.1518 9.39835 4.07812 9.39835C4.00445 9.39835 3.93277 9.37441 3.87388 9.33013C3.24177 8.78434 1.35938 7.01715 1.35938 5.32031C1.35938 4.59926 1.64581 3.90773 2.15568 3.39787C2.66554 2.888 3.35707 2.60156 4.07812 2.60156C4.79918 2.60156 5.49071 2.888 6.00057 3.39787C6.51044 3.90773 6.79687 4.59926 6.79688 5.32031Z" stroke="#99A1AF" stroke-width="0.679688" stroke-linecap="round" stroke-linejoin="round"/>
<path d="M4.07812 6.33984C4.6412 6.33984 5.09766 5.88338 5.09766 5.32031C5.09766 4.75724 4.6412 4.30078 4.07812 4.30078C3.51505 4.30078 3.05859 4.75724 3.05859 5.32031C3.05859 5.88338 3.51505 6.33984 4.07812 6.33984Z" stroke="#99A1AF" stroke-width="0.679688" stroke-linecap="round" stroke-linejoin="round"/>
</svg>
